# xmcd
#
# Track frame offsets:
#	150
#	14284
#	31092
#	41686
#	58132
#	75497
#	94186
#	106849
#	125423
#	139281
#
# Disc length: 2073 seconds
#
# Revision: 1
# Processed by: cddbd v1.5.1PL2 Copyright (c) Steve Scherf et al.
# Submitted via: EasyCDDAExtractor 9.0.0.1
#
DISCID=7b08170a
DTITLE=Elvis Presley - The Original Elvis Presley Collection 48 - Elvis Today
DYEAR=1975
DGENRE=
TTITLE0=T-R-O-U-B-L-E
TTITLE1=And I Love You So
TTITLE2=Susan When She Tried
TTITLE3=Woman Without Love
TTITLE4=Shake A Hand
TTITLE5=Pieces Of My Life
TTITLE6=Fairytale
TTITLE7=I Can Help
TTITLE8=Bringin' It Back
TTITLE9=Green Green Grass Of Home
EXTD=
EXTT0=
EXTT1=
EXTT2=
EXTT3=
EXTT4=
EXTT5=
EXTT6=
EXTT7=
EXTT8=
EXTT9=
PLAYORDER=
